<svg width="22" height="19" viewBox="0 0 22 19" fill="none" xmlns="http://www.w3.org/2000/svg">
<path fill-rule="evenodd" clip-rule="evenodd" d="M13.5071 0C14.4541 0 15.2948 0.615667 15.5943 1.52843L16.1929 3.35294H18.7C20.5226 3.35294 22 4.85411 22 6.70588V15.6471C22 17.4989 20.5226 19 18.7 19H3.3C1.47747 19 0 17.4989 0 15.6471V6.70588C0 4.85411 1.47747 3.35294 3.3 3.35294H5.80716L6.40573 1.52843C6.70518 0.615667 7.54589 0 8.49284 0H13.5071ZM13.5071 2.23529H8.49284L7.89427 4.05981C7.59482 4.97257 6.75411 5.58824 5.80716 5.58824H3.3C2.69249 5.58824 2.2 6.08863 2.2 6.70588V15.6471C2.2 16.2643 2.69249 16.7647 3.3 16.7647H18.7C19.3075 16.7647 19.8 16.2643 19.8 15.6471V6.70588C19.8 6.08863 19.3075 5.58824 18.7 5.58824H16.1929C15.2459 5.58824 14.4052 4.97257 14.1057 4.05981L13.5071 2.23529ZM8.25 10.6176C8.25 9.07451 9.48123 7.82353 11 7.82353C12.5188 7.82353 13.75 9.07451 13.75 10.6176C13.75 12.1608 12.5188 13.4118 11 13.4118C9.48123 13.4118 8.25 12.1608 8.25 10.6176ZM11 5.58824C8.26619 5.58824 6.05 7.83996 6.05 10.6176C6.05 13.3953 8.26619 15.6471 11 15.6471C13.7338 15.6471 15.95 13.3953 15.95 10.6176C15.95 7.83996 13.7338 5.58824 11 5.58824Z" fill="#0046C0"/>
</svg>
