<svg width="29" height="29" viewBox="0 0 29 29" fill="none" xmlns="http://www.w3.org/2000/svg">
<g clip-path="url(#clip0_219_4)">
<path d="M10.7327 13.3364L9.78714 9.55673C9.75004 9.40807 9.75464 9.25206 9.80044 9.10585C9.84624 8.95964 9.93147 8.82888 10.0467 8.72796C10.162 8.62703 10.3029 8.55984 10.4539 8.53377C10.6049 8.5077 10.7601 8.52376 10.9026 8.58018L21.5576 12.8007C22.2781 13.086 22.253 14.1136 21.52 14.3644L10.4238 18.149C10.2751 18.1998 10.115 18.2075 9.96206 18.1712C9.80912 18.1349 9.66957 18.0561 9.55951 17.9439C9.44945 17.8317 9.37337 17.6906 9.34006 17.537C9.30675 17.3834 9.31756 17.2235 9.37124 17.0758L10.7327 13.3364ZM10.7327 13.3364L21.234 13.5127" stroke="#0046C0" stroke-width="2" stroke-linecap="round"/>
</g>
<defs>
<clipPath id="clip0_219_4">
<rect width="20" height="20" fill="white" transform="translate(28.2222 15.0479) rotate(138.798)"/>
</clipPath>
</defs>
</svg>
